Coordinates
version=1
nRows=65
nColumns=12
inDegrees=yes

Units are S.I. units (second, meters, Newtons, ...)
Angles are in degrees

endheader
time	SC_y	SC_z	SC_x	AC_y	AC_z	AC_x	GH_y	GH_z	GH_yy	EL_x	PS_y
       0.0              -34.38          18.59          32.94           51.4         -18.34        -0.1924          168.3         -3.181          98.25          131.4          144.1
   0.01456              -34.38          18.59          32.95           51.4         -18.34        -0.1941          168.2         -3.179          98.24          131.4          144.1
   0.02912              -34.37          18.59          32.96           51.4         -18.34        -0.1958          168.2         -3.177          98.22          131.4          144.1
   0.04368              -34.37           18.6          32.96           51.4         -18.34        -0.1977          168.1         -3.175           98.2          131.4          144.1
   0.05824              -34.37           18.6          32.97           51.4         -18.33        -0.1997          168.1         -3.173          98.18          131.4          144.1
    0.0728              -34.36           18.6          32.98           51.4         -18.33        -0.2018          168.0          -3.17          98.16          131.4          144.1
   0.08736              -34.36           18.6          32.99           51.4         -18.33         -0.204          167.9         -3.168          98.14          131.4          144.1
    0.1019              -34.35           18.6           33.0           51.4         -18.33        -0.2065          167.9         -3.165          98.12          131.4          144.1
    0.1165              -34.35           18.6          33.01           51.4         -18.32         -0.209          167.8         -3.162          98.09          131.4          144.1
     0.131              -34.34          18.61          33.03           51.4         -18.32        -0.2118          167.7         -3.159          98.07          131.4          144.0
    0.1456              -34.34          18.61          33.04           51.4         -18.31        -0.2148          167.6         -3.155          98.04          131.4          144.0
    0.1602              -34.33          18.61          33.05           51.4         -18.31         -0.218          167.5         -3.151          98.01          131.4          144.0
    0.1747              -34.32          18.62          33.07           51.4          -18.3        -0.2214          167.4         -3.148          97.97          131.4          144.0
    0.1893              -34.32          18.62          33.09           51.4          -18.3        -0.2252          167.3         -3.143          97.94          131.3          144.0
    0.2038              -34.31          18.62          33.11           51.4         -18.29        -0.2292          167.2         -3.139           97.9          131.3          144.0
    0.2184               -34.3          18.63          33.12           51.4         -18.29        -0.2336          167.1         -3.134          97.86          131.3          144.0
     0.233              -34.29          18.63          33.15           51.4         -18.28        -0.2384          167.0         -3.128          97.81          131.3          144.0
    0.2475              -34.28          18.63          33.17           51.4         -18.27        -0.2435          166.8         -3.122          97.76          131.3          143.9
    0.2621              -34.27          18.64           33.2           51.4         -18.27        -0.2492          166.7         -3.116          97.71          131.3          143.9
    0.2766              -34.26          18.64          33.22           51.4         -18.26        -0.2554          166.5         -3.108          97.65          131.3          143.9
    0.2912              -34.24          18.65          33.25          51.39         -18.25        -0.2622          166.3         -3.101          97.58          131.3          143.9
    0.3058              -34.23          18.66          33.29          51.39         -18.24        -0.2697          166.1         -3.092          97.51          131.3          143.8
    0.3203              -34.21          18.66          33.32          51.39         -18.23         -0.278          165.9         -3.082          97.43          131.2          143.8
    0.3349               -34.2          18.67          33.37          51.39         -18.22        -0.2871          165.6         -3.072          97.34          131.2          143.8
    0.3494              -34.18          18.68          33.41          51.39          -18.2        -0.2973          165.3          -3.06          97.24          131.2          143.7
     0.364              -34.15          18.69          33.46          51.39         -18.19        -0.3087          165.0         -3.047          97.13          131.2          143.7
    0.3786              -34.13           18.7          33.52          51.39         -18.17        -0.3214          164.6         -3.032          97.01          131.2          143.7
    0.3931               -34.1          18.71          33.58          51.39         -18.15        -0.3358          164.2         -3.016          96.87          131.1          143.6
    0.4077              -34.07          18.72          33.66          51.39         -18.13         -0.352          163.8         -2.997          96.71          131.1          143.6
    0.4222              -34.03          18.74          33.74          51.39          -18.1        -0.3704          163.3         -2.976          96.53          131.1          143.5
    0.4368              -33.99          18.76          33.83          51.38         -18.07        -0.3913          162.7         -2.952          96.33          131.0          143.4
    0.4514              -33.95          18.78          33.94          51.38         -18.04        -0.4154          162.0         -2.924           96.1          131.0          143.3
    0.4659              -33.89           18.8          34.07          51.38          -18.0        -0.4432          161.2         -2.892          95.83          130.9          143.2
    0.4805              -33.83          18.83          34.21          51.38         -17.96        -0.4755          160.3         -2.855          95.52          130.8          143.1
     0.495              -33.76          18.86          34.38          51.37         -17.91        -0.5133          159.3         -2.811          95.15          130.8          143.0
    0.5096              -33.67           18.9          34.58          51.37         -17.85        -0.5579          158.0          -2.76          94.72          130.7          142.8
    0.5242              -33.57          18.94          34.82          51.37         -17.78        -0.6109          156.5         -2.699          94.21          130.6          142.7
    0.5387              -33.45          18.99          35.11          51.36         -17.69        -0.6743          154.8         -2.625           93.6          130.4          142.4
    0.5533               -33.3          19.06          35.45          51.36         -17.58        -0.7511          152.6         -2.537          92.85          130.3          142.2
    0.5678              -33.12          19.14          35.87          51.35         -17.46        -0.8449          150.0         -2.429          91.95          130.1          141.8
    0.5824              -32.89          19.23          36.39          51.34          -17.3        -0.9607          146.8         -2.295          90.83          129.9          141.4
     0.597              -32.61          19.35          37.04          51.33          -17.1         -1.105          142.7         -2.129          89.43          129.6          140.9
    0.6115              -32.26          19.51          37.86          51.31         -16.86         -1.287          137.6         -1.919          87.67          129.2          140.3
    0.6261              -31.81           19.7           38.9          51.29         -16.54         -1.518          131.2         -1.653          85.44          128.7          139.5
    0.6406              -31.24          19.95          40.23          51.27         -16.14         -1.814          122.9         -1.311          82.58          128.1          138.5
    0.6552               -30.5          20.26          41.93          51.24         -15.62         -2.194          112.2        -0.8736          78.91          127.4          137.2
    0.6698              -29.56          20.67          44.11           51.2         -14.97         -2.679          98.66        -0.3144          74.22          126.4          135.5
    0.6843              -28.38          21.18          46.86          51.15         -14.14         -3.289          81.58         0.3888          68.32          125.1          133.3
    0.6989              -26.94           21.8           50.2          51.09         -13.13         -4.032          60.78          1.246          61.13          123.6          130.8
    0.7134              -25.28          22.52          54.07          51.03         -11.96         -4.894          36.66          2.239           52.8          121.9          127.8
     0.728              -23.47           23.3          58.26          50.95         -10.69         -5.827          10.55          3.315          43.78          120.0          124.5
    0.7426              -21.66          24.08          62.45          50.88          -9.42          -6.76         -15.57           4.39          34.76          118.1          121.3
    0.7571              -19.99           24.8          66.32          50.81         -8.249         -7.622         -39.68          5.383          26.44          116.4          118.3
    0.7717              -18.55          25.42          69.66          50.75         -7.239         -8.365         -60.49           6.24          19.25          114.8          115.7
    0.7862              -17.37          25.93          72.41           50.7          -6.41         -8.975         -77.56          6.943          13.35          113.6          113.6
    0.8008              -16.43          26.33          74.59          50.66         -5.751          -9.46         -91.14          7.503          8.662          112.6          111.9
    0.8154               -15.7          26.65          76.29          50.63         -5.235          -9.84         -101.8          7.941          4.991          111.9          110.6
    0.8299              -15.13           26.9          77.62          50.61         -4.833         -10.14         -110.1          8.282           2.13          111.3          109.5
    0.8445              -14.68          27.09          78.66          50.59         -4.519         -10.37         -116.5          8.548        -0.1055          110.8          108.7
     0.859              -14.33          27.24          79.48          50.57         -4.272         -10.55         -121.6          8.758         -1.864          110.4          108.1
    0.8736              -14.05          27.36          80.13          50.56         -4.075         -10.69         -125.7          8.924          -3.26          110.1          107.6
    0.8882              -13.82          27.46          80.65          50.55         -3.918         -10.81         -128.9          9.058         -4.379          109.9          107.2
    0.9027              -13.64          27.54          81.07          50.55         -3.791          -10.9         -131.5          9.166         -5.286          109.7          106.9
    0.9173              -13.49           27.6          81.41          50.54         -3.686         -10.98         -133.7          9.255         -6.028          109.6          106.6
    0.9318              -13.37          27.66           81.7          50.54           -3.6         -11.04         -135.5          9.328         -6.642          109.4          106.4
